<?xml version="1.0" encoding="UTF-8"?>
<svg width="400" height="120" viewBox="0 0 400 120" xmlns="http://www.w3.org/2000/svg">
  <defs>
    <linearGradient id="neonBlue" x1="0%" y1="0%" x2="100%" y2="0%">
      <stop offset="0%" style="stop-color:#00d4ff;stop-opacity:1" />
      <stop offset="100%" style="stop-color:#2563EB;stop-opacity:1" />
    </linearGradient>
    <linearGradient id="orangeGlow" x1="0%" y1="0%" x2="100%" y2="100%">
      <stop offset="0%" style="stop-color:#F97316;stop-opacity:1" />
      <stop offset="100%" style="stop-color:#EA580C;stop-opacity:1" />
    </linearGradient>
    <filter id="glow">
      <feGaussianBlur stdDeviation="3" result="coloredBlur"/>
      <feMerge>
        <feMergeNode in="coloredBlur"/>
        <feMergeNode in="SourceGraphic"/>
      </feMerge>
    </filter>
  </defs>
  
  <g transform="translate(20, 20)">
    <path d="M20 5 L35 5 L40 15 L40 35 L35 45 L20 45 L15 35 L15 15 Z" fill="url(#neonBlue)" filter="url(#glow)"/>
    <rect x="22" y="18" width="8" height="4" fill="#F97316" filter="url(#glow)"/>
    <rect x="30" y="18" width="3" height="4" fill="#F97316" filter="url(#glow)"/>
    <line x1="27" y1="5" x2="27" y2="0" stroke="#00d4ff" stroke-width="2" filter="url(#glow)"/>
    <circle cx="27" cy="0" r="2" fill="#F97316" filter="url(#glow)"/>
    <path d="M5 35 L15 30 L15 50 L5 55 Z" fill="#1e3a5f"/>
    <path d="M40 30 L50 35 L50 55 L40 50 Z" fill="#1e3a5f"/>
  </g>
  
  <text x="90" y="55" font-family="Arial Black, sans-serif" font-size="42" font-weight="900" fill="url(#neonBlue)" filter="url(#glow)">MECH</text>
  
  <text x="215" y="55" font-family="Arial Black, sans-serif" font-size="42" font-weight="900" fill="url(#orangeGlow)" filter="url(#glow)">FORGE</text>
  
  <text x="90" y="75" font-family="Arial, sans-serif" font-size="11" fill="#888" letter-spacing="2">GAMIFIED LIQUID STAKING</text>
</svg>
